<svg version="1.2" xmlns="http://www.w3.org/2000/svg" xmlns:xlink="http://www.w3.org/1999/xlink" overflow="visible" preserveAspectRatio="none" viewBox="0 0 1442 331" width="1442" height="331"><g transform="translate(0, 0)"><defs><path id="path-1659057120633188" d="M-1 598 C-1 598 -1 401 -1 401 C-1 401 281 623 714 375 C1147 127 1441 385 1441 385 C1441 385 1441 598 1441 598 C1441 598 -1 598 -1 598 Z" vector-effect="non-scaling-stroke"/></defs><g transform="translate(1, -267.31194320331133)"><path d="M-1 598 C-1 598 -1 401 -1 401 C-1 401 281 623 714 375 C1147 127 1441 385 1441 385 C1441 385 1441 598 1441 598 C1441 598 -1 598 -1 598 Z" style="stroke: rgb(140, 140, 140); stroke-width: 0; stroke-linecap: butt; stroke-linejoin: miter; fill: rgb(134, 125, 249);" vector-effect="non-scaling-stroke"/></g></g></svg>