<svg xmlns="http://www.w3.org/2000/svg" xmlns:xlink="http://www.w3.org/1999/xlink" version="1.1"
	width="3162.3134328358215" height="722.0134956243224" viewBox="0 0 3162.3134328358215 722.0134956243224">

	<g transform="scale(8.115671641791046) translate(10, 10)">
		<defs id="SvgjsDefs1030">
			<linearGradient id="SvgjsLinearGradient1035">
				<stop id="SvgjsStop1036" stop-color="#1afed8" offset="0" />
				<stop id="SvgjsStop1037" stop-color="#00a1ff" offset="1" />
			</linearGradient>
		</defs>
		<g id="SvgjsG1031" featureKey="symbolFeature-0"
			transform="matrix(0.7183907393490538,0,0,0.7183907393490538,-15.80459489545759,-11.494423107284177)" fill="#fff">
			<title xmlns="http://www.w3.org/2000/svg">Prancheta 54</title>
			<path xmlns="http://www.w3.org/2000/svg"
				d="M105.49707,39.63281l-40.99951-23.5a.99909.99909,0,0,0-.99463,0l-41.00049,23.5A.9993.9993,0,0,0,22,40.5v47a.99874.99874,0,0,0,.50293.86719l40.99951,23.5a.9975.9975,0,0,0,.99463,0l41-23.5A.99874.99874,0,0,0,106,87.5v-47A.99874.99874,0,0,0,105.49707,39.63281ZM64,18.15234l7.75146,4.44342L42.52393,39.3479l-7.7522-4.44354ZM64,40.533,84.47607,52.26935v23.4613L64,87.467,43.52393,75.73065V52.26935ZM43.52393,49.96515V41.07892L63,29.91571v8.88623ZM32.762,36.05658,40.514,40.5l-7.752,4.44342-7.75165-4.44348Zm8.762,6.1687V75.73059l-7.76221,4.44855V46.67462ZM24,42.22565l7.76172,4.44922V80.17926L24,75.73065Zm29.23828,61.45343L24,86.9209V78.03479l29.23828,16.758ZM34.77167,81.90442l7.7522-4.44275L61.98993,88.61908l-7.75165,4.44269ZM63,109.27441l-7.76172-4.44928V95.93951L63,100.38873Zm1.00024-10.61707-7.75171-4.44354,29.2276-16.75214,7.752,4.44269Zm30.238-6.14154L65,109.27448v-8.886L94.23828,83.62958Zm0-12.33667-7.76221-4.44855V53.41571l7.76221,4.44934Zm0-24.61829L65,38.80194V29.91571L94.23828,46.67462ZM66.01007,28.19049l7.75165-4.44269L102.98962,40.5,95.238,44.94348ZM104,86.9209l-7.76172,4.44861V57.8653L104,53.41608Zm0-35.80963-7.76172,4.44922V46.67487L104,42.22565Z" />
		</g>
		<g id="SvgjsG1032" featureKey="nameFeature-0"
			transform="matrix(0.820673793353898,0,0,0.820673793353898,77.34101748869845,13.803372410453774)" fill="#fff">
			<path
				d="M24.4 33.92 q0.6 0 1 0.42 t0.4 1.02 l0 2.92 q0 0.56 -0.4 0.98 t-1 0.42 l-19.76 0 q-0.56 0 -0.98 -0.42 t-0.42 -0.98 l0 -2.92 q0 -0.6 0.42 -1.02 t0.98 -0.42 l19.76 0 z M4.64 27.72 q-0.56 0 -0.98 -0.42 t-0.42 -0.98 l0 -3 q0 -0.56 0.42 -0.98 t0.98 -0.42 l17.96 0 q0.6 0 1.02 0.42 t0.42 0.98 l0 3 q0 0.56 -0.42 0.98 t-1.02 0.42 l-17.96 0 z M24.4 10 q0.6 0 1 0.42 t0.4 0.98 l0 2.92 q0 0.6 -0.4 1.02 t-1 0.42 l-19.76 0 q-0.56 0 -0.98 -0.42 t-0.42 -1.02 l0 -2.92 q0 -0.56 0.42 -0.98 t0.98 -0.42 l19.76 0 z M41.268 10 q0.56 0 0.98 0.42 t0.42 0.98 l0 26.8 q0 0.56 -0.42 0.98 t-0.98 0.42 l-3.04 0 q-0.56 0 -0.98 -0.42 t-0.42 -0.98 l0 -26.8 q0 -0.56 0.42 -0.98 t0.98 -0.42 l3.04 0 z M55.868 33.88 q0.6 0 1 0.42 t0.4 0.98 l0 2.92 q0 0.56 -0.4 0.98 t-1 0.42 l-9.32 0 q-0.6 0 -1 -0.42 t-0.4 -0.98 l0 -2.92 q0 -0.56 0.4 -0.98 t1 -0.42 l9.32 0 z M71.77600000000001 21.88 q0.6 0 1 0.42 t0.4 1.02 l0 14.96 q0 0.56 -0.4 0.98 t-1 0.42 l-3.04 0 q-0.56 0 -0.98 -0.42 t-0.42 -0.98 l0 -14.96 q0 -0.6 0.42 -1.02 t0.98 -0.42 l3.04 0 z M71.77600000000001 10 q0.6 0 1 0.42 t0.4 0.98 l0 7.4 q0 0.6 -0.4 1.02 t-1 0.42 l-3.04 0 q-0.56 0 -0.98 -0.42 t-0.42 -1.02 l0 -7.4 q0 -0.56 0.42 -0.98 t0.98 -0.42 l3.04 0 z M105.404 24.84 q1.72 1.08 2.62 2.64 t0.9 3.48 q0 4.52 -3.44 6.92 q-2.32 1.68 -6.28 2.12 l-0.16 0 q-0.56 0 -0.92 -0.36 q-0.48 -0.44 -0.48 -1.04 l0 -2.88 q0 -0.52 0.36 -0.92 t0.88 -0.48 q1.88 -0.2 2.92 -0.88 q0.8 -0.48 1.08 -1.24 q0.16 -0.44 0.16 -1.12 q0 -0.44 -0.16 -0.76 t-0.56 -0.6 q-1.16 -0.8 -3 -1.36 l-0.64 -0.2 q-2 -0.56 -3.68 -0.92 q-0.36 -0.08 -1.16 -0.28 l-0.44 -0.12 q-1.44 -0.36 -3.04 -1 q-2.36 -1 -3.88 -2.52 q-1.76 -1.76 -1.76 -4.64 q0 -3.96 3.04 -6.44 q2.08 -1.76 5.84 -2.24 q0.64 -0.08 1.1 0.36 t0.46 1.04 l0 2.88 q0 0.52 -0.32 0.92 t-0.82 0.46 t-1.02 0.22 q-1.16 0.44 -1.64 0.86 t-0.68 0.86 q-0.2 0.68 -0.2 1.28 q0 0.32 0.36 0.68 q0.56 0.56 1.64 1 q0.48 0.2 1.68 0.6 l5 1.24 l0.24 0.08 q1.88 0.52 2.72 0.8 q1.88 0.64 3.28 1.56 z M98.724 15.8 q-0.48 -0.12 -0.78 -0.5 t-0.3 -0.9 l0 -2.92 q0 -0.64 0.52 -1.08 q0.2 -0.2 0.52 -0.26 t0.6 -0.02 q3.52 0.56 5.72 2.4 q3 2.48 3.2 6.32 q0.04 0.56 -0.38 1.02 t-1.02 0.46 l-3.12 0 q-0.52 0 -0.92 -0.36 t-0.44 -0.88 q-0.16 -1.04 -0.68 -1.72 q-0.84 -1 -2.6 -1.52 q-0.12 0 -0.16 -0.04 l-0.16 0 z M94.044 34.16 q0.48 0.08 0.8 0.48 t0.32 0.88 l0 2.96 q0 0.64 -0.48 1.08 q-0.4 0.32 -0.92 0.32 l-0.2 0 q-3.72 -0.56 -6.12 -2.44 q-3.12 -2.48 -3.52 -6.92 q-0.08 -0.64 0.36 -1.1 t1.04 -0.46 l3.16 0 q0.56 0 0.96 0.38 t0.44 0.94 q0.12 2 1.96 3.08 q0.84 0.48 2.2 0.8 z M124.19200000000001 21.88 q0.6 0 1 0.42 t0.4 1.02 l0 14.96 q0 0.56 -0.4 0.98 t-1 0.42 l-3.04 0 q-0.56 0 -0.98 -0.42 t-0.42 -0.98 l0 -14.96 q0 -0.6 0.42 -1.02 t0.98 -0.42 l3.04 0 z M124.19200000000001 10 q0.6 0 1 0.42 t0.4 0.98 l0 7.4 q0 0.6 -0.4 1.02 t-1 0.42 l-3.04 0 q-0.56 0 -0.98 -0.42 t-0.42 -1.02 l0 -7.4 q0 -0.56 0.42 -0.98 t0.98 -0.42 l3.04 0 z M149.86 10.32 q0.48 0.4 0.48 1.08 l0 3 q0 0.52 -0.3 0.9 t-0.82 0.5 q-2.56 0.52 -4.36 2.44 q-2.44 2.56 -2.44 6.66 t2.44 6.7 q1.8 1.88 4.36 2.4 q0.52 0.12 0.82 0.5 t0.3 0.9 l0 3 q0 0.64 -0.48 1.08 q-0.44 0.32 -0.92 0.32 l-0.24 0 q-4.64 -0.76 -7.96 -4.2 q-4.16 -4.28 -4.16 -10.66 t4.16 -10.74 q3.24 -3.36 7.96 -4.16 q0.64 -0.12 1.16 0.28 z M162.42000000000002 14.2 q4.16 4.36 4.16 10.74 t-4.16 10.66 q-3.32 3.44 -7.96 4.2 l-0.24 0 q-0.48 0 -0.92 -0.32 q-0.48 -0.44 -0.48 -1.08 l0 -3 q0 -0.52 0.3 -0.9 t0.82 -0.5 q2.56 -0.52 4.36 -2.4 q2.44 -2.6 2.44 -6.7 t-2.44 -6.66 q-1.8 -1.92 -4.36 -2.44 q-0.52 -0.12 -0.82 -0.5 t-0.3 -0.9 l0 -3 q0 -0.68 0.5 -1.08 t1.14 -0.28 q4.72 0.8 7.96 4.16 z M202.088 10 q0.56 0 0.98 0.42 t0.42 0.98 l0 26.8 q0 0.56 -0.42 0.98 t-0.98 0.42 l-3.52 0 q-0.72 0 -1.16 -0.56 l-19.56 -26.8 q-0.24 -0.32 -0.28 -0.72 t0.14 -0.76 t0.52 -0.56 t0.74 -0.2 l3.52 0 q0.32 0 0.64 0.14 t0.48 0.42 l14.04 19.08 l0 -18.24 q0 -0.56 0.4 -0.98 t1 -0.42 l3.04 0 z M182.008 29.4 q0.56 0 0.98 0.4 t0.42 1 l0 7.4 q0 0.56 -0.42 0.98 t-0.98 0.42 l-3.04 0 q-0.56 0 -0.98 -0.42 t-0.42 -0.98 l0 -7.4 q0 -0.6 0.42 -1 t0.98 -0.4 l3.04 0 z M235.184 10 q0.56 0 0.98 0.42 t0.42 0.98 l0 26.8 q0 0.56 -0.42 0.98 t-0.98 0.42 l-3.04 0 q-0.56 0 -0.98 -0.42 t-0.42 -0.98 l0 -26.8 q0 -0.56 0.42 -0.98 t0.98 -0.42 l3.04 0 z M249.784 33.88 q0.6 0 1 0.42 t0.4 0.98 l0 2.92 q0 0.56 -0.4 0.98 t-1 0.42 l-9.32 0 q-0.6 0 -1 -0.42 t-0.4 -0.98 l0 -2.92 q0 -0.56 0.4 -0.98 t1 -0.42 l9.32 0 z M287.572 37.72 q0.28 0.64 -0.14 1.3 t-1.14 0.66 l-26.64 0 q-0.36 0 -0.68 -0.18 t-0.48 -0.46 q-0.44 -0.64 -0.12 -1.32 l1.24 -2.92 q0.16 -0.4 0.52 -0.64 t0.76 -0.24 l18.64 0 l-6.56 -15.68 l-5.36 12.8 q-0.16 0.4 -0.5 0.62 t-0.78 0.22 l-3.36 0 q-0.76 0 -1.2 -0.64 q-0.16 -0.28 -0.2 -0.64 t0.08 -0.68 l8.12 -19.04 q0.16 -0.4 0.5 -0.64 t0.78 -0.24 l3.84 0 q0.44 0 0.78 0.24 t0.5 0.64 z M318.44 24.36 q2.08 1.28 3.04 3.68 q0.56 1.28 0.56 3.16 q0 2.92 -1.56 4.9 t-4.56 2.94 q-1.88 0.64 -4.44 0.64 l-12.76 0 q-0.56 0 -0.98 -0.42 t-0.42 -0.98 l0 -2.88 q0 -0.6 0.42 -1.02 t0.98 -0.42 l13.08 0 q2.32 0 3.44 -0.84 q0.96 -0.8 0.96 -2.18 t-1 -2.26 q-1.24 -1.08 -3.72 -1.08 l-12.76 0 q-0.56 0 -0.98 -0.42 t-0.42 -1.02 l0 -2.76 q0 -0.56 0.42 -0.98 t0.98 -0.42 l12.04 0 q1.72 0 2.68 -0.6 q0.68 -0.4 1.08 -1.16 q0.28 -0.56 0.28 -1.3 t-0.2 -1.34 q-0.16 -0.48 -0.56 -0.88 q-0.88 -1 -2.92 -1 l-12.4 0 q-0.56 0 -0.98 -0.42 t-0.42 -1.02 l0 -2.88 q0 -0.56 0.42 -0.98 t0.98 -0.42 l12.04 0 q4.96 0 7.64 2.8 q2.28 2.28 2.28 5.72 q0 3.68 -2.24 5.84 z M352.668 24.84 q1.72 1.08 2.62 2.64 t0.9 3.48 q0 4.52 -3.44 6.92 q-2.32 1.68 -6.28 2.12 l-0.16 0 q-0.56 0 -0.92 -0.36 q-0.48 -0.44 -0.48 -1.04 l0 -2.88 q0 -0.52 0.36 -0.92 t0.88 -0.48 q1.88 -0.2 2.92 -0.88 q0.8 -0.48 1.08 -1.24 q0.16 -0.44 0.16 -1.12 q0 -0.44 -0.16 -0.76 t-0.56 -0.6 q-1.16 -0.8 -3 -1.36 l-0.64 -0.2 q-2 -0.56 -3.68 -0.92 q-0.36 -0.08 -1.16 -0.28 l-0.44 -0.12 q-1.44 -0.36 -3.04 -1 q-2.36 -1 -3.88 -2.52 q-1.76 -1.76 -1.76 -4.64 q0 -3.96 3.04 -6.44 q2.08 -1.76 5.84 -2.24 q0.64 -0.08 1.1 0.36 t0.46 1.04 l0 2.88 q0 0.52 -0.32 0.92 t-0.82 0.46 t-1.02 0.22 q-1.16 0.44 -1.64 0.86 t-0.68 0.86 q-0.2 0.68 -0.2 1.28 q0 0.32 0.36 0.68 q0.56 0.56 1.64 1 q0.48 0.2 1.68 0.6 l5 1.24 l0.24 0.08 q1.88 0.52 2.72 0.8 q1.88 0.64 3.28 1.56 z M345.988 15.8 q-0.48 -0.12 -0.78 -0.5 t-0.3 -0.9 l0 -2.92 q0 -0.64 0.52 -1.08 q0.2 -0.2 0.52 -0.26 t0.6 -0.02 q3.52 0.56 5.72 2.4 q3 2.48 3.2 6.32 q0.04 0.56 -0.38 1.02 t-1.02 0.46 l-3.12 0 q-0.52 0 -0.92 -0.36 t-0.44 -0.88 q-0.16 -1.04 -0.68 -1.72 q-0.84 -1 -2.6 -1.52 q-0.12 0 -0.16 -0.04 l-0.16 0 z M341.308 34.16 q0.48 0.08 0.8 0.48 t0.32 0.88 l0 2.96 q0 0.64 -0.48 1.08 q-0.4 0.32 -0.92 0.32 l-0.2 0 q-3.72 -0.56 -6.12 -2.44 q-3.12 -2.48 -3.52 -6.92 q-0.08 -0.64 0.36 -1.1 t1.04 -0.46 l3.16 0 q0.56 0 0.96 0.38 t0.44 0.94 q0.12 2 1.96 3.08 q0.84 0.48 2.2 0.8 z" />
		</g>
	</g>
</svg>