<svg version="1.2" xmlns="http://www.w3.org/2000/svg" xmlns:xlink="http://www.w3.org/1999/xlink" overflow="visible" preserveAspectRatio="none" viewBox="0 0 1442 502" width="1442" height="502"><g transform="translate(0, 0)"><defs><path id="path-165905773014024715" d="M0 0 C0 0 1441.9999999999998 0 1441.9999999999998 0 C1441.9999999999998 0 1441.9999999999998 501.9999999999995 1441.9999999999998 501.9999999999995 C1441.9999999999998 501.9999999999995 0 501.9999999999995 0 501.9999999999995 C0 501.9999999999995 0 0 0 0 Z" vector-effect="non-scaling-stroke"/><linearGradient id="gradient-165905773016226422" x1="50%" y1="100%" x2="50%" y2="0%" vector-effect="non-scaling-stroke"><stop offset="0%" stop-color="rgb(130,234,255)" stop-opacity="1" vector-effect="non-scaling-stroke"/><stop offset="100%" stop-color="rgb(134,125,249)" stop-opacity="1" vector-effect="non-scaling-stroke"/></linearGradient></defs><g transform="translate(0, 0)"><path d="M0 0 C0 0 1441.9999999999998 0 1441.9999999999998 0 C1441.9999999999998 0 1441.9999999999998 501.9999999999995 1441.9999999999998 501.9999999999995 C1441.9999999999998 501.9999999999995 0 501.9999999999995 0 501.9999999999995 C0 501.9999999999995 0 0 0 0 Z" style="stroke: rgb(140, 140, 140); stroke-width: 0; stroke-linecap: butt; stroke-linejoin: miter; fill: url(&quot;#gradient-165905773016226422&quot;);" vector-effect="non-scaling-stroke"/></g></g></svg>